<svg id="Layer_1" data-name="Layer 1" xmlns="http://www.w3.org/2000/svg" viewBox="0 0 128 128"><defs><style>.cls-1{fill:#f1c40f;}.cls-2{fill:#7f6cd5;}</style></defs><path class="cls-1" d="M101.89,70.07a32.28,32.28,0,0,0-13-9.81,27.8,27.8,0,0,0,9.19-8A27.1,27.1,0,0,0,103,36a27.78,27.78,0,0,0-3.77-14.42A26.55,26.55,0,0,0,88,11.37Q80.67,7.61,70.16,7.6H41a5.25,5.25,0,0,0-5.25,5.25h0A5.24,5.24,0,0,0,41,18.09h28.8q9.66,0,15.41,4.92T91,37q0,9-5.32,13.93T71.15,55.8H25.21A5.25,5.25,0,0,0,20,61.05h0a5.25,5.25,0,0,0,5.25,5.25H73a24.77,24.77,0,0,1,12.21,2.86,20.23,20.23,0,0,1,8,7.79,22,22,0,0,1,2.78,11,20.84,20.84,0,0,1-6.39,15.57q-6.39,6.24-17.54,6.23H25.29A5.33,5.33,0,0,0,20,115.07h0a5.33,5.33,0,0,0,5.33,5.33H71.15q11.64,0,19.92-4.18a29.59,29.59,0,0,0,17-27.46A29.42,29.42,0,0,0,101.89,70.07Z"/><path class="cls-2" d="M77.56,33.53H38.41a3.75,3.75,0,0,1,0-7.49H77.56a3.75,3.75,0,0,1,0,7.49Z"/><path class="cls-2" d="M77.56,48.29H38.41a3.74,3.74,0,1,1,0-7.48H77.56a3.74,3.74,0,0,1,0,7.48Z"/><path class="cls-2" d="M77.56,84.18H25.29a3.74,3.74,0,1,1,0-7.48H77.56a3.74,3.74,0,0,1,0,7.48Z"/><path class="cls-2" d="M77.56,99.55H25.29a3.74,3.74,0,1,1,0-7.48H77.56a3.74,3.74,0,0,1,0,7.48Z"/></svg>