<svg id="Layer_1" data-name="Layer 1" xmlns="http://www.w3.org/2000/svg" viewBox="0 0 64 64"><defs><style>.cls-1{fill:#f1c40f;}.cls-2{fill:#7f6cd5;}.cls-3{fill:#333;}</style></defs><path class="cls-1" d="M46.91,29.31a12.78,12.78,0,0,0-5.13-3.86,10.86,10.86,0,0,0,3.61-3.14,10.65,10.65,0,0,0,1.94-6.42,11.06,11.06,0,0,0-1.48-5.68,10.49,10.49,0,0,0-4.39-4,15.31,15.31,0,0,0-7-1.48H23A2.06,2.06,0,0,0,20.9,6.79h0A2.07,2.07,0,0,0,23,8.86H34.3a9,9,0,0,1,6.06,1.93,6.82,6.82,0,0,1,2.26,5.49,7.08,7.08,0,0,1-2.1,5.48,8.1,8.1,0,0,1-5.71,1.94H16.73a2.06,2.06,0,0,0-2.06,2.06h0a2.07,2.07,0,0,0,2.06,2.07H35.52A9.69,9.69,0,0,1,40.33,29,8,8,0,0,1,43.46,32a8.62,8.62,0,0,1,1.1,4.32A8.18,8.18,0,0,1,42,42.47a9.45,9.45,0,0,1-6.9,2.45H16.77a2.1,2.1,0,0,0-2.1,2.1h0a2.1,2.1,0,0,0,2.1,2.1h18a17.16,17.16,0,0,0,7.84-1.65,11.63,11.63,0,0,0,6.68-10.8A11.63,11.63,0,0,0,46.91,29.31Z"/><path class="cls-2" d="M37.34,14.93H21.93a1.47,1.47,0,1,1,0-2.94H37.34a1.47,1.47,0,0,1,0,2.94Z"/><path class="cls-2" d="M37.34,20.74H21.93a1.47,1.47,0,0,1,0-2.94H37.34a1.47,1.47,0,0,1,0,2.94Z"/><path class="cls-2" d="M37.34,34.86H16.77a1.47,1.47,0,1,1,0-2.94H37.34a1.47,1.47,0,0,1,0,2.94Z"/><path class="cls-2" d="M37.34,40.91H16.77a1.47,1.47,0,1,1,0-2.94H37.34a1.47,1.47,0,0,1,0,2.94Z"/><path class="cls-3" d="M7.8,56.37a1.26,1.26,0,0,0,.38-.3,1.19,1.19,0,0,0,.27-.78,1.29,1.29,0,0,0-.18-.67,1.33,1.33,0,0,0-.54-.51,1.91,1.91,0,0,0-.88-.19H4.73v5.27H6.88a2,2,0,0,0,1-.21,1.5,1.5,0,0,0,.6-.54,1.42,1.42,0,0,0,.2-.76,1.36,1.36,0,0,0-.31-.91A1.52,1.52,0,0,0,7.8,56.37ZM6.73,54.75a.82.82,0,0,1,.51.16.59.59,0,0,1,.19.48.56.56,0,0,1-.19.47.76.76,0,0,1-.51.16h-1V54.75Zm.69,3.38a.75.75,0,0,1-.57.23H5.74V56.84H6.85a.82.82,0,0,1,.42.11.59.59,0,0,1,.27.27.79.79,0,0,1,.09.38A.74.74,0,0,1,7.42,58.13Z"/><path class="cls-3" d="M14.75,54.62a2.68,2.68,0,0,0-.87-.57,2.86,2.86,0,0,0-2.15,0,2.54,2.54,0,0,0-.86.57,2.71,2.71,0,0,0-.58.87,2.64,2.64,0,0,0-.21,1.06,2.71,2.71,0,0,0,.21,1.06,2.88,2.88,0,0,0,.58.87,2.71,2.71,0,0,0,.87.58,2.74,2.74,0,0,0,1.08.21,2.64,2.64,0,0,0,1.06-.21,2.71,2.71,0,0,0,.87-.58,2.83,2.83,0,0,0,.58-.86,2.72,2.72,0,0,0,.21-1.07,2.67,2.67,0,0,0-.21-1.06A2.88,2.88,0,0,0,14.75,54.62Zm-.48,2.85a1.54,1.54,0,0,1-.58.63,1.88,1.88,0,0,1-1.57.09,1.47,1.47,0,0,1-.53-.36,1.5,1.5,0,0,1-.34-.56,2.09,2.09,0,0,1-.13-.72,2,2,0,0,1,.22-.93,1.51,1.51,0,0,1,.59-.61,1.66,1.66,0,0,1,.87-.23,1.84,1.84,0,0,1,.69.13,1.54,1.54,0,0,1,.53.37,1.57,1.57,0,0,1,.35.55,2.09,2.09,0,0,1,.12.72A1.82,1.82,0,0,1,14.27,57.47Z"/><path class="cls-3" d="M21.71,54.62a2.68,2.68,0,0,0-.87-.57,2.86,2.86,0,0,0-2.15,0,2.54,2.54,0,0,0-.86.57,2.71,2.71,0,0,0-.58.87A2.64,2.64,0,0,0,17,56.55a2.71,2.71,0,0,0,.21,1.06,2.88,2.88,0,0,0,.58.87,2.71,2.71,0,0,0,.87.58,2.74,2.74,0,0,0,1.08.21,2.64,2.64,0,0,0,1.06-.21,2.71,2.71,0,0,0,.87-.58,2.83,2.83,0,0,0,.58-.86,2.72,2.72,0,0,0,.21-1.07,2.67,2.67,0,0,0-.21-1.06A2.88,2.88,0,0,0,21.71,54.62Zm-.48,2.85a1.54,1.54,0,0,1-.58.63,1.88,1.88,0,0,1-1.57.09,1.47,1.47,0,0,1-.53-.36,1.5,1.5,0,0,1-.34-.56,2.09,2.09,0,0,1-.13-.72,1.88,1.88,0,0,1,.22-.93,1.51,1.51,0,0,1,.59-.61,1.66,1.66,0,0,1,.87-.23,1.84,1.84,0,0,1,.69.13,1.54,1.54,0,0,1,.53.37,1.57,1.57,0,0,1,.35.55,2.09,2.09,0,0,1,.12.72A1.82,1.82,0,0,1,21.23,57.47Z"/><polygon class="cls-3" points="28.6 53.92 27.33 53.92 25.22 56.3 25.22 53.92 24.2 53.92 24.2 59.19 25.22 59.19 25.22 56.59 27.39 59.19 28.68 59.19 26.33 56.43 28.6 53.92"/><path class="cls-3" d="M33.2,56.37a1.22,1.22,0,0,0,.37-.3,1.15,1.15,0,0,0,.28-.78,1.29,1.29,0,0,0-.18-.67,1.33,1.33,0,0,0-.54-.51,1.94,1.94,0,0,0-.88-.19H30.12v5.27h2.16a2,2,0,0,0,1-.21,1.39,1.39,0,0,0,.8-1.3,1.32,1.32,0,0,0-.32-.91A1.39,1.39,0,0,0,33.2,56.37Zm-1.07-1.62a.82.82,0,0,1,.51.16.62.62,0,0,1,.19.48.59.59,0,0,1-.19.47.76.76,0,0,1-.51.16h-1V54.75Zm.69,3.38a.75.75,0,0,1-.58.23H31.13V56.84h1.11a.83.83,0,0,1,.43.11.62.62,0,0,1,.26.27.79.79,0,0,1,.09.38A.78.78,0,0,1,32.82,58.13Z"/><path class="cls-3" d="M38.93,57.19a1.27,1.27,0,0,1-.14.6,1,1,0,0,1-.4.39,1.15,1.15,0,0,1-.57.14,1.23,1.23,0,0,1-.57-.14.94.94,0,0,1-.4-.39,1.17,1.17,0,0,1-.15-.61V53.92h-1v3.23A2.08,2.08,0,0,0,36,58.24a2,2,0,0,0,.76.75,2.4,2.4,0,0,0,2.21,0,1.93,1.93,0,0,0,.75-.75A2.07,2.07,0,0,0,40,57.16V53.92h-1Z"/><path class="cls-3" d="M45.87,54.67a2.63,2.63,0,0,0-.87-.55,2.92,2.92,0,0,0-1.08-.2H41.86v5.27h2.07A3,3,0,0,0,45,59a2.35,2.35,0,0,0,.86-.55,2.28,2.28,0,0,0,.57-.83,2.67,2.67,0,0,0,.21-1.06,2.59,2.59,0,0,0-.21-1A2.51,2.51,0,0,0,45.87,54.67Zm-.48,2.8a1.45,1.45,0,0,1-.6.6,1.8,1.8,0,0,1-.89.21h-1V54.83h1a1.76,1.76,0,0,1,.88.21,1.57,1.57,0,0,1,.6.6,1.78,1.78,0,0,1,.22.91A1.92,1.92,0,0,1,45.39,57.47Z"/><path class="cls-3" d="M52.36,54.67a2.44,2.44,0,0,0-.87-.55,2.92,2.92,0,0,0-1.08-.2h-2v5.27h2.07A2.91,2.91,0,0,0,51.5,59a2.48,2.48,0,0,0,.87-.55,2.56,2.56,0,0,0,.57-.83,2.67,2.67,0,0,0,.21-1.06,2.59,2.59,0,0,0-.21-1A2.54,2.54,0,0,0,52.36,54.67Zm-.48,2.8a1.48,1.48,0,0,1-.59.6,1.83,1.83,0,0,1-.89.21h-1V54.83h1a1.79,1.79,0,0,1,.88.21,1.72,1.72,0,0,1,.6.6,1.88,1.88,0,0,1,.22.91A1.82,1.82,0,0,1,51.88,57.47Z"/><polygon class="cls-3" points="59.27 53.92 58.11 53.92 56.87 55.96 55.63 53.92 54.45 53.92 56.35 56.95 56.35 59.19 57.38 59.19 57.38 56.9 59.27 53.92"/></svg>