<svg id="Layer_1" data-name="Layer 1" xmlns="http://www.w3.org/2000/svg" viewBox="0 0 64 64"><defs><style>.cls-1{fill:#f1c40f;}.cls-2{fill:#7f6cd5;}</style></defs><path class="cls-1" d="M49.65,34.83a15.07,15.07,0,0,0-6.08-4.57,13,13,0,0,0,4.28-3.72,12.61,12.61,0,0,0,2.3-7.6,13,13,0,0,0-1.76-6.72A12.41,12.41,0,0,0,43.2,7.48a18.18,18.18,0,0,0-8.33-1.75H21.3a2.44,2.44,0,0,0-2.44,2.44h0a2.45,2.45,0,0,0,2.44,2.45H34.72a10.67,10.67,0,0,1,7.18,2.29,8.08,8.08,0,0,1,2.67,6.49,8.41,8.41,0,0,1-2.48,6.49,9.58,9.58,0,0,1-6.76,2.29H13.93a2.45,2.45,0,0,0-2.44,2.45h0a2.44,2.44,0,0,0,2.44,2.44H36.17a11.54,11.54,0,0,1,5.69,1.34A9.41,9.41,0,0,1,45.56,38a10.18,10.18,0,0,1,1.3,5.12,9.72,9.72,0,0,1-3,7.26,11.22,11.22,0,0,1-8.17,2.9H14a2.48,2.48,0,0,0-2.48,2.48h0A2.48,2.48,0,0,0,14,58.27H35.33a20.38,20.38,0,0,0,9.28-2,13.77,13.77,0,0,0,7.9-12.79A13.69,13.69,0,0,0,49.65,34.83Z"/><path class="cls-2" d="M38.32,17.8H20.08a1.74,1.74,0,1,1,0-3.48H38.32a1.74,1.74,0,1,1,0,3.48Z"/><path class="cls-2" d="M38.32,24.68H20.08a1.74,1.74,0,0,1,0-3.48H38.32a1.74,1.74,0,0,1,0,3.48Z"/><path class="cls-2" d="M38.32,41.4H14a1.75,1.75,0,0,1,0-3.49H38.32a1.75,1.75,0,0,1,0,3.49Z"/><path class="cls-2" d="M38.32,48.56H14a1.74,1.74,0,1,1,0-3.48H38.32a1.74,1.74,0,0,1,0,3.48Z"/></svg>