<?xml version="1.0" standalone="no"?>
<!DOCTYPE svg PUBLIC "-//W3C//DTD SVG 20010904//EN" "http://www.w3.org/TR/2001/REC-SVG-20010904/DTD/svg10.dtd">
<svg version="1.0" xmlns="http://www.w3.org/2000/svg"
    width="500.000000pt" height="500.000000pt" viewBox="0 0 500.000000 500.000000"
    preserveAspectRatio="xMidYMid meet">

    <g transform="translate(0.000000,500.000000) scale(0.100000,-0.100000)"
        fill="#fff" stroke="none">
        <path
            d="M2340 2955 l0 -225 -37 24 c-72 47 -185 56 -269 21 -47 -19 -112 -83
-139 -134 l-24 -46 -1 93 0 92 -100 0 -100 0 0 -25 c0 -30 -4 -31 -37 -5 -15
11 -51 28 -81 36 -124 36 -255 -15 -327 -129 l-18 -28 -23 39 c-48 80 -143
125 -264 126 -103 0 -155 -20 -230 -90 -27 -26 -50 -44 -50 -40 0 4 9 24 20
46 26 52 26 55 -12 71 -76 31 -176 11 -241 -49 l-27 -26 0 37 0 37 -105 0
-105 0 0 -295 0 -295 105 0 105 0 0 173 c0 154 2 175 20 205 32 53 94 66 169
36 l39 -15 -10 -42 c-23 -99 13 -207 93 -282 73 -68 126 -89 229 -89 116 -1
178 22 246 88 l53 52 36 -43 c20 -24 60 -55 88 -70 93 -48 244 -32 296 31 20
24 31 19 31 -14 l0 -30 100 0 100 0 0 93 0 92 21 -42 c24 -49 96 -119 143
-138 88 -37 210 -24 274 30 38 32 42 31 42 -5 l0 -30 100 0 100 0 0 92 0 92
28 -45 c67 -105 163 -155 297 -153 105 2 179 30 240 91 l46 46 36 -42 c19 -23
58 -54 87 -68 92 -48 243 -32 295 31 20 24 31 19 31 -14 l0 -30 100 0 c100 0
100 0 100 25 l0 24 33 -19 c58 -34 153 -53 232 -45 115 11 192 56 219 129 6
17 11 14 41 -22 43 -50 137 -98 208 -107 69 -9 170 10 230 43 47 25 107 83
107 102 0 5 -32 26 -71 46 l-71 35 -30 -28 c-27 -26 -36 -28 -104 -28 -73 0
-77 1 -105 33 -16 18 -29 43 -29 57 l0 25 216 0 217 0 -7 62 c-20 175 -134
273 -316 272 -86 0 -159 -28 -222 -83 -43 -37 -98 -141 -98 -183 0 -33 -3 -34
-38 -9 -15 10 -62 31 -104 46 -76 27 -93 41 -82 70 8 20 102 20 150 0 20 -8
39 -13 43 -11 4 3 20 32 36 66 35 72 35 72 -74 96 -131 29 -270 -4 -322 -77
-20 -28 -24 -46 -24 -103 l0 -68 47 -43 c26 -23 73 -53 105 -65 96 -38 118
-77 57 -100 -32 -13 -81 1 -136 36 l-38 24 -23 -37 c-13 -21 -29 -47 -35 -58
-9 -15 -11 39 -12 233 l0 252 -100 0 -100 0 0 -25 c0 -30 -4 -31 -37 -5 -70
55 -201 62 -293 15 -43 -22 -120 -97 -120 -117 0 -17 -16 -6 -37 26 -51 79
-184 134 -294 122 -105 -11 -193 -65 -251 -155 l-28 -45 0 292 0 292 -105 0
-105 0 0 -225z m-1339 -324 c53 -54 43 -61 -81 -61 -124 0 -134 7 -81 61 25
25 37 29 81 29 44 0 56 -4 81 -29z m1938 3 c17 -14 31 -34 31 -45 0 -18 -8
-19 -111 -19 -110 0 -110 0 -104 23 20 68 124 92 184 41z m1718 11 c11 -8 26
-28 31 -45 l11 -30 -114 0 -115 0 11 28 c5 15 20 35 32 44 28 22 114 24 144 3z
m-3049 -45 c35 -21 62 -72 62 -115 0 -76 -61 -135 -138 -135 -84 0 -132 51
-132 140 0 47 4 56 39 91 34 35 44 39 87 39 31 0 61 -7 82 -20z m671 6 c43
-23 65 -64 65 -121 0 -84 -50 -135 -134 -135 -74 0 -122 40 -135 112 -9 47 19
112 58 137 38 24 106 27 146 7z m1269 -6 c35 -21 62 -72 62 -115 0 -76 -61
-135 -138 -135 -84 0 -132 51 -132 140 0 47 4 56 39 91 34 35 44 39 87 39 31
0 61 -7 82 -20z m-2357 -200 c9 -33 14 -60 12 -60 -2 0 -31 14 -64 31 -61 30
-61 30 -83 11 -35 -32 -62 -42 -118 -42 -67 0 -114 27 -126 72 -5 18 -7 36 -5
41 2 4 86 7 186 7 l182 0 16 -60z m1940 0 c9 -33 14 -60 12 -60 -2 0 -31 14
-64 31 -61 30 -61 30 -83 11 -36 -33 -62 -42 -121 -42 -51 0 -60 3 -91 34 -21
21 -34 44 -34 60 l0 26 183 0 182 0 16 -60z" />
        <path
            d="M1880 2098 l0 -73 34 -2 c26 -2 39 3 50 19 21 30 20 44 -5 69 -13 13
-27 18 -40 14 -14 -5 -19 -2 -19 14 0 11 -4 23 -10 26 -6 4 -10 -21 -10 -67z
m70 -3 c16 -19 3 -55 -20 -55 -25 0 -41 29 -29 52 12 22 32 23 49 3z" />
        <path
            d="M2630 2096 c0 -44 4 -76 10 -76 6 0 10 9 10 20 0 25 12 25 35 0 25
-27 31 -18 9 14 -16 25 -16 28 1 46 24 27 7 25 -22 -2 l-23 -21 0 41 c0 22 -4
44 -10 47 -6 4 -10 -22 -10 -69z" />
        <path
            d="M2142 2114 c-41 -28 -19 -94 32 -94 29 0 46 18 46 50 0 48 -40 71
-78 44z m57 -23 c13 -24 -8 -55 -35 -49 -23 4 -30 33 -14 53 17 20 37 19 49
-4z" />
        <path
            d="M2392 2114 c-41 -28 -19 -94 32 -94 29 0 46 18 46 50 0 48 -40 71
-78 44z m57 -23 c13 -24 -8 -55 -35 -49 -23 4 -30 33 -14 53 17 20 37 19 49
-4z" />
        <path
            d="M2876 2117 c-22 -16 -12 -43 20 -51 13 -4 24 -11 24 -16 0 -16 -21
-22 -36 -9 -17 14 -33 4 -17 -12 6 -6 23 -9 39 -7 39 4 39 38 1 56 -33 16 -25
36 12 28 25 -6 25 -6 7 9 -24 18 -27 18 -50 2z" />
    </g>
</svg>